<?xml version="1.0" encoding="UTF-8"?>
<svg xmlns="http://www.w3.org/2000/svg" xmlns:svg="http://www.w3.org/2000/svg" xmlns:sodipodi="http://sodipodi.sourceforge.net/DTD/sodipodi-0.dtd" xmlns:rdf="http://www.w3.org/1999/02/22-rdf-syntax-ns#" xmlns:inkscape="http://www.inkscape.org/namespaces/inkscape" xmlns:dc="http://purl.org/dc/elements/1.1/" xmlns:cc="http://creativecommons.org/ns#" version="1.1" viewBox="0 0 298.9 278.17">
  <!-- Generator: Adobe Illustrator 29.6.1, SVG Export Plug-In . SVG Version: 2.1.1 Build 9)  -->
  <defs>
    <style>
      .st0 {
        fill-rule: evenodd;
      }

      .st0, .st1 {
        fill: #ff5900;
      }

      .st2 {
        font-family: SpaceGrotesk-Regular, 'Space Grotesk';
        font-size: 26.4px;
        isolation: isolate;
      }
    </style>
  </defs>
  <g id="svg8" inkscape:export-filename="C:\Users\Kids\Desktop\drawing.png" inkscape:export-xdpi="2601.542" inkscape:export-ydpi="2601.542" inkscape:version="1.1.1 (3bf5ae0d25, 2021-09-20)" sodipodi:docname="SE Logo Rounded.svg">
    <sodipodi:namedview id="base" bordercolor="#666666" borderlayer="true" borderopacity="1.0" inkscape:current-layer="g97" inkscape:cx="191.27238" inkscape:cy="199.05056" inkscape:document-rotation="0" inkscape:document-units="mm" inkscape:pagecheckerboard="0" inkscape:pageopacity="0.0" inkscape:pageshadow="2" inkscape:window-height="1009" inkscape:window-maximized="1" inkscape:window-width="1920" inkscape:window-x="-8" inkscape:window-y="-8" inkscape:zoom="1.4142136" pagecolor="#ffffff" showborder="true" showgrid="false" showguides="false"/>
    <g id="layer1" inkscape:groupmode="layer" inkscape:label="Layer 1">
      <g id="g4542">
        <g id="g97">
          <g id="g1355">
            <g id="g457">
              <path id="circle4535" class="st0" d="M161.94,239.15c64.2-15.42,124.81-80.71,135.37-145.84,0,0,0,0,0,0C307.88,28.17,264.4-12.13,200.2,3.28c0,0,0,0,0,0-64.2,15.42-124.81,80.71-135.37,145.84h0c-10.56,65.13,32.92,105.44,97.12,90.02ZM163.47,229.74c-59.08,14.19-99.09-22.9-89.37-82.84,9.72-59.94,65.49-120.02,124.57-134.21,59.08-14.19,99.09,22.9,89.37,82.84h0c-9.72,59.94-65.49,120.02-124.57,134.21h0s0,0,0,0Z" inkscape:connector-curvature="0" inkscape:export-filename="C:\Users\Kids\Desktop\Desktopg4617.png" inkscape:export-xdpi="150.10001" inkscape:export-ydpi="150.10001"/>
              <path id="rect2666" class="st1" d="M160.65,76.56h118.49c6.66,0,12.06,5.4,12.06,12.06h0c0,6.66-5.4,12.06-12.06,12.06h-118.49c-6.66,0-12.06-5.4-12.06-12.06h0c0-6.66,5.4-12.06,12.06-12.06Z"/>
              <rect id="rect2670" class="st1" x="148.59" y="173.08" width="142.61" height="24.13" rx="12.06" ry="12.06"/>
              <rect id="rect2668" class="st1" x="148.59" y="123.19" width="142.61" height="24.13" rx="12.06" ry="12.06"/>
              <rect id="rect2704" class="st1" x="0" y="76.88" width="21.78" height="66.06" rx="10.39" ry="10.39"/>
              <path id="rect2700" class="st1" d="M10.39,175.97h114.39c5.74,0,10.39,4.65,10.39,10.39h0c0,5.74-4.65,10.39-10.39,10.39H10.39C4.65,196.75,0,192.1,0,186.36H0C0,180.62,4.65,175.97,10.39,175.97Z"/>
              <path id="rect2702" class="st1" d="M124.27,125.65h0c6.02,0,10.89,5.01,10.89,11.18v48.74c0,6.18-4.88,11.18-10.89,11.18h0c-6.02,0-10.89-5.01-10.89-11.18v-48.74c0-6.18,4.88-11.18,10.89-11.18Z"/>
              <path id="rect2672" class="st1" d="M10.39,76.88h114.39c5.74,0,10.39,4.65,10.39,10.39h0c0,5.74-4.65,10.39-10.39,10.39H10.39C4.65,97.65,0,93,0,87.26H0C0,81.53,4.65,76.88,10.39,76.88Z"/>
              <path id="rect2674" class="st1" d="M10.39,124.29h114.39c5.74,0,10.39,4.65,10.39,10.39h0c0,5.74-4.65,10.39-10.39,10.39H10.39C4.65,145.07,0,140.42,0,134.68H0C0,128.94,4.65,124.29,10.39,124.29Z"/>
            </g>
            <text class="st2" transform="translate(28.25 274.85)"><tspan x="0" y="0">A Tradition Of Trust</tspan></text>
          </g>
        </g>
      </g>
    </g>
  </g>
</svg>